<?xml version="1.0" encoding="utf-8"?>
<!-- Generator: Adobe Illustrator 17.1.0, SVG Export Plug-In . SVG Version: 6.00 Build 0)  -->
<!DOCTYPE svg PUBLIC "-//W3C//DTD SVG 1.1//EN" "http://www.w3.org/Graphics/SVG/1.1/DTD/svg11.dtd">
<svg version="1.1" xmlns="http://www.w3.org/2000/svg" xmlns:xlink="http://www.w3.org/1999/xlink" x="0px" y="0px"
	 viewBox="0 0 156.7 194.6" enable-background="new 0 0 156.7 194.6" xml:space="preserve">
<g id="IRAs">
</g>
<g id="Custodial">
</g>
<g id="Term_CD">
</g>
<g id="RampUP_CD">
</g>
<g id="Jumbo_CD">
</g>
<g id="Online_Banking">
</g>
<g id="Mobile_Banking">
</g>
<g id="About_CIT">
</g>
<g id="Awards">
</g>
<g id="Community">
</g>
<g id="Fraud__x26__Security">
</g>
<g id="Privacy_Policy">
</g>
<g id="Forms">
</g>
<g id="Contact_us">
</g>
<g id="Module_Icons">
	<g>
		<path fill="#0D4C88" d="M132.4,84.2l0-0.6l9.6-18.1L132.4,49V35.2H105L78.3,15.9L51.7,35.2H24.3V49l-9.6,16.5l9.6,18.1l0,0.6
			c0,0.3-0.7,25.4,6.1,40.2c6.9,15.2,18.1,33.5,47.9,54.5c29.9-21,41-39.3,47.9-54.5C133,109.6,132.4,84.5,132.4,84.2z"/>
		<path fill="#15AFE6" d="M145.2,45.6V22.4h-36L78.3,0L47.5,22.4h-36v23.2L0,65.3l11.4,21.5c0,7.8,0.7,28.5,7.3,43.1
			c7.8,17,20.2,37.5,53.6,60.7l6,4.2l6-4.2c33.4-23.2,45.8-43.7,53.6-60.7c6.6-14.5,7.3-35.2,7.3-43.1l11.4-21.5L145.2,45.6z
			 M136.9,84.7c0,1.8,0.1,7.4-0.5,14.5c-0.9,11.4-3,20.5-6,27.2c-7.3,16-19,35.2-50.7,57.3l-1.3,0.9l-1.3-0.9
			c-31.7-22-43.5-41.3-50.7-57.3c-3-6.7-5.1-15.8-6-27.2c-0.6-7-0.6-12.7-0.5-14.5L9.6,65.4l10.3-17.6V30.7h30.4l28.1-20.4
			l28.1,20.4h30.4v17.1l10.3,17.6L136.9,84.7z"/>
		<g>
			<path fill="#FFFFFF" d="M63.5,117.2c-0.1,0-0.2,0-0.3,0h-0.3c-0.2,0-0.4,0-0.5,0c0,0,0,0,0,0H49.7c0,0,0,0,0,0
				c-0.3,0-0.5,0-0.7,0c-0.2,0-0.4,0-0.6,0c-0.5,0-0.9,0.4-0.9,0.9c0,4.4,0,8.7,0,13.1c0,0.5,0.3,0.8,0.8,0.9c0.2,0,0.3,0,0.5,0
				c4.8,0,9.7,0,14.5,0c0.1,0,0.2,0,0.4,0c0.7-0.1,1-0.3,1-1.1c0-4.3,0-8.5,0-12.8C64.6,117.5,64.3,117.2,63.5,117.2z"/>
			<g>
				<circle fill="#0D4C88" cx="56" cy="123" r="2.3"/>
				<path fill="#0D4C88" d="M57.6,128.2c0,0.2-0.1,0.4-0.3,0.4h-2.5c-0.2,0-0.3-0.2-0.3-0.4l0.9-3.2c0-0.2,0.1-0.4,0.3-0.4h0.6
					c0.2,0,0.3,0.2,0.3,0.4L57.6,128.2z"/>
			</g>
			<path fill="#FFFFFF" d="M51.9,111.4c0.1-2,2-4.4,4.7-4c0.6,0.1,1.2,0.3,1.7,0.7c1.2,0.9,1.9,2.1,1.9,3.6c0,0.7,0,2.4,0,3.8h2.2
				c0-1.3,0-2.9,0-3.5c0-1.9-0.6-3.6-2-4.9c-1.6-1.5-3.5-2.1-5.6-1.6c-3.3,0.7-5.1,4-5.1,6.6c0,0.6,0,2.1,0,3.4h2.2
				C51.8,114,51.8,112.1,51.9,111.4z"/>
		</g>
		<g>
			<path fill="#FFFFFF" d="M109.5,127.8c0.4,3.1-2.5,5.6-5.6,5.6h-8.4c-3.1,0-6-2-5.6-5.6l1.1-7.5c0.5-3.3,3.1-5.6,5.6-5.6h6.2
				c2.5,0,4.8,2.3,5.6,5.6L109.5,127.8z"/>
			<path fill="#FFFFFF" d="M95.9,108.2c-0.5-1.3,1-2.2,2.2-2.2h3.2c1.2,0,2.6,0.9,2.2,2.2l-1.5,2.9c-0.5,1.2-1,2.2-2.2,2.2h-0.2
				c-1.2,0-1.5-0.8-2.2-2.2L95.9,108.2z"/>
			<g>
				<path fill="#0D4C88" d="M99.3,128.3c-1.1-0.1-2.2-0.6-3-1.3l0.8-1.2c0.7,0.6,1.4,1,2.3,1.1v-2.5c-1.9-0.5-2.8-1.2-2.8-2.6v0
					c0-1.4,1.1-2.3,2.7-2.5v-0.8h1.1v0.8c0.9,0.1,1.7,0.5,2.4,1l-0.7,1.2c-0.6-0.4-1.1-0.7-1.8-0.8v2.5c2,0.5,2.8,1.3,2.8,2.7v0
					c0,1.4-1.1,2.4-2.8,2.5v1.3h-1.1V128.3z M99.3,120.5c-0.8,0.1-1.2,0.5-1.2,1.1v0c0,0.5,0.2,0.9,1.2,1.2V120.5z M101.6,125.9
					L101.6,125.9c0-0.6-0.3-0.9-1.3-1.2v2.3C101.2,126.9,101.6,126.5,101.6,125.9z"/>
			</g>
		</g>
		<g>
			<path fill="#FFFFFF" d="M113.6,67.5c-0.3-2.2-1.8-3.7-4.1-3.7h-12c-2.3,0-3.9,1.5-4.1,3.7l-0.9,8.7h3.6l0.5-4.6H98l-0.3,4.6h11.6
				l-0.3-4.6l1.6-0.1l0.4,4.7h3.6L113.6,67.5z"/>
			<g>
				<circle fill="#FFFFFF" stroke="#FFFFFF" stroke-width="3" stroke-miterlimit="10" cx="103.4" cy="55.7" r="7"/>
				<rect x="96.4" y="54.5" fill="#0D4C88" width="14" height="2.7"/>
				<rect x="98.7" y="55.4" fill="#FFFFFF" width="2.8" height="1"/>
				<rect x="105.2" y="55.4" fill="#FFFFFF" width="2.8" height="1"/>
			</g>
		</g>
		<polygon fill="#FFFFFF" points="77.8,169.1 75.8,94.8 77.8,27.2 79.6,94.8 		"/>
		<polygon fill="#FFFFFF" points="77.6,92.2 30.4,90.2 77.6,88.1 124.7,90.2 		"/>
		<g>
			<g>
				<path fill="#FFFFFF" d="M55.4,53.5c-0.1,0-0.3,0-0.4,0c-7.6-1.9-11.8,3-11.8,3c-0.3,0.3-0.7,0.3-1,0.1c-0.3-0.3-0.3-0.7-0.1-1
					c0.2-0.2,4.9-5.6,13.3-3.5c0.4,0.1,0.6,0.5,0.5,0.9C55.8,53.2,55.7,53.4,55.4,53.5z"/>
			</g>
			<g>
				<path fill="#FFFFFF" d="M61.5,63.2C61.5,63.2,61.5,63.2,61.5,63.2c-0.4,0.1-0.8-0.1-0.9-0.5c-1.9-5.9-6.7-6.9-6.8-7l0,0
					c-6.5-1.7-11.4,5.4-11.5,5.4c-0.2,0.3-0.7,0.4-1,0.2c-0.3-0.2-0.4-0.7-0.2-1c0.2-0.3,5.6-7.9,13-6c0.4,0.1,5.7,1.4,7.8,7.9
					C62.1,62.6,61.9,63,61.5,63.2z"/>
			</g>
			<g>
				<path fill="#FFFFFF" d="M55.6,69.9c-0.4,0.1-0.8-0.1-0.9-0.5c-0.1-0.4,0.1-0.8,0.5-0.9c3.5-1.1,3.1-3.8,3.1-4c-0.8-5-4-6-4.2-6
					c-3-0.8-5.9,0-8.5,2.6c-2,2-3.2,4.2-3.2,4.3c-0.2,0.4-0.6,0.5-1,0.3c-0.4-0.2-0.5-0.6-0.3-1c0-0.1,1.2-2.5,3.4-4.6
					c3-2.9,6.4-3.9,9.9-2.9c0.2,0.1,4.2,1.3,5.2,7.2C59.9,65.7,59.3,68.7,55.6,69.9z"/>
			</g>
			<g>
				<path fill="#FFFFFF" d="M54.5,67.3c-0.4,0.1-1,0.2-1.6,0.2c-0.4,0-0.7-0.3-0.7-0.7c0-0.4,0.3-0.7,0.7-0.7c1,0,1.7-0.3,2.1-0.8
					c0.5-0.6,0.4-1.6,0.2-2.2c-0.1-0.4-0.6-1.6-1.8-2.1c-1-0.4-2.2-0.3-3.6,0.3c-3.7,1.6-5.7,7.1-5.7,7.2c-0.1,0.4-0.5,0.6-0.9,0.4
					c-0.4-0.1-0.6-0.5-0.4-0.9c0.1-0.3,2.2-6.1,6.5-8c1.8-0.8,3.4-0.9,4.8-0.3c1.7,0.8,2.4,2.3,2.6,3c0.4,1.3,0.2,2.5-0.4,3.5
					C55.9,66.6,55.4,67,54.5,67.3z"/>
			</g>
			<g>
				<path fill="#FFFFFF" d="M49.1,76.1c-0.2,0.1-0.4,0-0.6-0.1c-0.3-0.2-0.4-0.6-0.2-1c0.1-0.1,1.7-2.8,6.8-4.4
					c5.2-1.7,7.1-0.1,7.3,0c0,0-0.1,1.3-0.9,1.1C61,71.6,60,70.6,55.6,72c-4.6,1.5-6,3.8-6.1,3.8C49.4,75.9,49.3,76.1,49.1,76.1z"/>
			</g>
			<g>
				<path fill="#FFFFFF" d="M51.6,77.8c-0.1,0-0.3,0-0.4,0c-0.4-0.1-0.6-0.5-0.5-0.9c0-0.1,0.8-2.4,5-3.8c4.3-1.4,5.8,0.2,5.9,0.4
					c0.1,0.2-0.2,1-1.1,0.9c-0.5,0-1.1-1-4.4,0c-3.5,1.1-4.1,2.8-4.1,2.8C52,77.5,51.9,77.7,51.6,77.8z"/>
			</g>
			<g>
				<path fill="#FFFFFF" d="M60.6,69.6c-0.2,0.1-0.4,0-0.6-0.1c-0.3-0.2-0.4-0.7-0.2-1c1.1-1.7,0.8-2.8,0.8-2.8
					c-0.1-0.4,0.1-0.8,0.5-0.9c0.4-0.1,0.8,0.1,0.9,0.5c0,0.1,0.4,1.8-1,4C60.9,69.4,60.8,69.5,60.6,69.6z"/>
			</g>
			<g>
				<path fill="#FFFFFF" d="M50.4,71.4C50.4,71.4,50.4,71.4,50.4,71.4c-0.4,0.2-0.8,0-1-0.4c0-0.1-0.7-1.7,0.4-4.1
					c0.2-0.4,0.6-0.5,0.9-0.3c0.4,0.2,0.5,0.6,0.3,0.9c-0.8,1.8-0.4,2.9-0.4,2.9C50.9,70.9,50.8,71.3,50.4,71.4z"/>
			</g>
			<g>
				<path fill="#FFFFFF" d="M58.5,76.7c-0.1,0-0.2,0-0.2,0c-2,0-2.8,0.8-2.9,0.8c-0.3,0.3-0.7,0.3-1,0c-0.3-0.3-0.3-0.7,0-1
					c0.1-0.1,1.3-1.3,3.9-1.2c0.4,0,0.7,0.3,0.7,0.7C59,76.4,58.8,76.7,58.5,76.7z"/>
			</g>
			<g>
				<path fill="#FFFFFF" d="M47.3,73.9c0,0-0.1,0-0.1,0c-0.4,0.1-0.7-0.2-0.8-0.6c0-0.3-0.9-6.3,2-9.2c1.2-1.2,2.7-1.7,4.7-1.5
					c0.4,0,0.7,0.4,0.6,0.8c0,0.4-0.4,0.7-0.8,0.6c-1.5-0.2-2.7,0.2-3.5,1.1c-2.3,2.4-1.6,7.9-1.6,8C47.8,73.5,47.6,73.8,47.3,73.9z
					"/>
			</g>
		</g>
	</g>
</g>
<g id="FDIC">
</g>
<g id="RampUp_Plus_CD">
</g>
<g id="HYSA">
</g>
<g id="Layer_19">
</g>
<g id="Layer_19_copy">
</g>
<g id="Layer_21">
</g>
</svg>
